<?xml version="1.0" encoding="iso-8859-1"?>
<!-- Uploaded to: SVG Repo, www.svgrepo.com, Generator: SVG Repo Mixer Tools -->
<svg fill="#000000" height="800px" width="800px" version="1.1" id="Capa_1" xmlns="http://www.w3.org/2000/svg" xmlns:xlink="http://www.w3.org/1999/xlink" 
	 viewBox="0 0 46.501 46.501" xml:space="preserve">
<g>
	<g>
		<path d="M41.251,8.501H25.163L25.8,6.853l11.349-4.934c0.507-0.22,0.739-0.81,0.519-1.315c-0.221-0.507-0.808-0.741-1.315-0.519
			L25.799,4.673c-0.161-0.107-0.349-0.171-0.548-0.171h-17c-0.33,0-0.639,0.162-0.825,0.435C7.24,5.207,7.199,5.554,7.318,5.862
			l1.02,2.64H5.251c-0.553,0-1,0.447-1,1v36c0,0.553,0.447,1,1,1h36c0.553,0,1-0.447,1-1v-36
			C42.251,8.949,41.803,8.501,41.251,8.501z M9.709,6.501h14.083l-0.772,2H10.481L9.709,6.501z M40.251,44.501h-34v-34h3.545h13.909
			h16.546V44.501z"/>
		<path d="M8.251,19.501c-0.553,0-1,0.447-1,1v17c0,0.553,0.447,1,1,1h30c0.553,0,1-0.447,1-1v-17c0-0.553-0.447-1-1-1
			C38.251,19.501,8.251,19.501,8.251,19.501z M37.251,36.501h-28v-15h28V36.501z"/>
		<path d="M11.251,17.501c1.654,0,3-1.346,3-3s-1.346-3-3-3s-3,1.346-3,3S9.596,17.501,11.251,17.501z M11.251,13.501
			c0.552,0,1,0.448,1,1s-0.448,1-1,1s-1-0.448-1-1S10.699,13.501,11.251,13.501z"/>
		<path d="M19.251,17.501c1.654,0,3-1.346,3-3s-1.346-3-3-3s-3,1.346-3,3S17.596,17.501,19.251,17.501z M19.251,13.501
			c0.552,0,1,0.448,1,1s-0.448,1-1,1s-1-0.448-1-1S18.699,13.501,19.251,13.501z"/>
		<path d="M27.251,17.501c1.654,0,3-1.346,3-3s-1.346-3-3-3s-3,1.346-3,3S25.596,17.501,27.251,17.501z M27.251,13.501
			c0.552,0,1,0.448,1,1s-0.448,1-1,1s-1-0.448-1-1S26.699,13.501,27.251,13.501z"/>
		<path d="M35.251,17.501c1.654,0,3-1.346,3-3s-1.346-3-3-3s-3,1.346-3,3S33.596,17.501,35.251,17.501z M35.251,13.501
			c0.552,0,1,0.448,1,1s-0.448,1-1,1s-1-0.448-1-1S34.699,13.501,35.251,13.501z"/>
	</g>
</g>
</svg>