<?xml version="1.0" ?><svg data-name="Layer 1" id="Layer_1" viewBox="0 0 100 100" xmlns="http://www.w3.org/2000/svg"><title/><path d="M50,5A45,45,0,1,0,95,50,45.00058,45.00058,0,0,0,50,5Zm0,88A43.00035,43.00035,0,1,1,80.40552,80.40546,42.86117,42.86117,0,0,1,50,93Z"/><path d="M69.16943,39H59.75732a1.81753,1.81753,0,0,1-1.674-1.05853L53.507,27.26849l-.00556-.01275a3.75788,3.75788,0,0,0-1.47931-1.69391,3.92,3.92,0,0,0-4.04431,0,3.75794,3.75794,0,0,0-1.47918,1.69391l-.00556.01275-4.57635,10.673A1.81753,1.81753,0,0,1,40.24268,39H30.83057A3.78914,3.78914,0,0,0,28.051,40.17743a3.83257,3.83257,0,0,0-1.0509,2.62549,3.70187,3.70187,0,0,0,1.13214,2.658l.02.0191,7.55365,7.02124a1.73665,1.73665,0,0,1,.46118,1.7179l-3.389,11.9823a3.81175,3.81175,0,0,0-.14624,1.03906A3.70453,3.70453,0,0,0,33.79309,69.921a3.82869,3.82869,0,0,0,4.53772.589l.01941-.011,10.75-6.25757a1.86732,1.86732,0,0,1,1.79956,0l10.75,6.25757.01935.011a3.82844,3.82844,0,0,0,4.53766-.58893,3.70536,3.70536,0,0,0,1.16137-2.68066,3.81642,3.81642,0,0,0-.14605-1.0387L63.83337,54.21857a1.72693,1.72693,0,0,1-.06567-.471,1.7483,1.7483,0,0,1,.52618-1.246l7.554-7.02155.0199-.019A3.70159,3.70159,0,0,0,73,42.80286a3.83262,3.83262,0,0,0-1.051-2.62555A3.78949,3.78949,0,0,0,69.16943,39ZM64.82458,68.47546a1.877,1.877,0,0,1-1.28582.52442,1.84853,1.84853,0,0,1-.9007-.23975L51.88782,62.50244l-.01941-.011a3.86928,3.86928,0,0,0-3.73682,0l-.01941.011L37.36212,68.76a1.84627,1.84627,0,0,1-.901.23981,1.87741,1.87741,0,0,1-1.28589-.52436,1.70192,1.70192,0,0,1-.54358-1.235,1.81505,1.81505,0,0,1,.0708-.49469l3.38922-11.98291a3.73815,3.73815,0,0,0-.98608-3.69068l-.02-.019-7.55389-7.02148a1.69069,1.69069,0,0,1-.53168-1.22876,1.83745,1.83745,0,0,1,.5025-1.2497,1.77942,1.77942,0,0,1,1.328-.55328h9.41211a3.81741,3.81741,0,0,0,3.50146-2.24567l.00549-.01257L48.32587,28.069a1.75057,1.75057,0,0,1,.69323-.79956,1.92008,1.92008,0,0,1,1.96173-.00006,1.75142,1.75142,0,0,1,.6933.79962L56.25037,38.7417l.00549.01257a3.81741,3.81741,0,0,0,3.50146,2.24567h9.41211a1.77985,1.77985,0,0,1,1.32807.55328,1.83754,1.83754,0,0,1,.50256,1.24964,1.691,1.691,0,0,1-.53174,1.22882l-7.554,7.02148-.01984.019a3.73559,3.73559,0,0,0-.98559,3.691l3.38855,11.98261a1.81255,1.81255,0,0,1,.07067.49463A1.70158,1.70158,0,0,1,64.82458,68.47546Z"/></svg>